<svg xmlns="http://www.w3.org/2000/svg" width="2000" height="2000" viewBox="0 0 2000 2000">
  <!-- Dark blue background -->
  <rect width="2000" height="2000" fill="#05071F"/>

  <!-- Subtle blue gradient overlay -->
  <radialGradient id="bgGradient" cx="50%" cy="50%" r="70%" fx="50%" fy="50%">
    <stop offset="0%" stop-color="#0A1445" stop-opacity="0.7"/>
    <stop offset="100%" stop-color="#05071F" stop-opacity="0"/>
  </radialGradient>
  <rect width="2000" height="2000" fill="url(#bgGradient)"/>

  <!-- Stars in blue/purple tones -->
  <g>
    <!-- Small stars (light blue) -->
    <circle cx="150" cy="150" r="1" fill="#A6B8FF" opacity="0.8"/>
    <circle cx="450" cy="250" r="0.8" fill="#A6B8FF" opacity="0.7"/>
    <circle cx="750" cy="100" r="1.2" fill="#A6B8FF" opacity="0.9"/>
    <circle cx="1050" cy="300" r="0.7" fill="#A6B8FF" opacity="0.6"/>
    <circle cx="1350" cy="150" r="1" fill="#A6B8FF" opacity="0.8"/>
    <circle cx="1650" cy="250" r="0.9" fill="#A6B8FF" opacity="0.7"/>
    <circle cx="150" cy="650" r="0.8" fill="#A6B8FF" opacity="0.7"/>
    <circle cx="450" cy="750" r="1.1" fill="#A6B8FF" opacity="0.8"/>
    <circle cx="750" cy="550" r="0.7" fill="#A6B8FF" opacity="0.6"/>
    <circle cx="1050" cy="800" r="1" fill="#A6B8FF" opacity="0.8"/>
    <circle cx="1350" cy="550" r="0.9" fill="#A6B8FF" opacity="0.7"/>
    <circle cx="1650" cy="750" r="1.2" fill="#A6B8FF" opacity="0.9"/>
    <circle cx="300" cy="950" r="0.7" fill="#A6B8FF" opacity="0.6"/>
    <circle cx="600" cy="1050" r="1" fill="#A6B8FF" opacity="0.8"/>
    <circle cx="900" cy="950" r="0.8" fill="#A6B8FF" opacity="0.7"/>
    <circle cx="1200" cy="1100" r="1.1" fill="#A6B8FF" opacity="0.8"/>
    <circle cx="1500" cy="950" r="0.9" fill="#A6B8FF" opacity="0.7"/>
    <circle cx="1800" cy="1050" r="0.7" fill="#A6B8FF" opacity="0.6"/>
    <circle cx="200" cy="1350" r="1" fill="#A6B8FF" opacity="0.8"/>
    <circle cx="500" cy="1450" r="0.9" fill="#A6B8FF" opacity="0.7"/>
    <circle cx="800" cy="1350" r="0.7" fill="#A6B8FF" opacity="0.6"/>
    <circle cx="1100" cy="1500" r="1.2" fill="#A6B8FF" opacity="0.9"/>
    <circle cx="1400" cy="1350" r="0.8" fill="#A6B8FF" opacity="0.7"/>
    <circle cx="1700" cy="1450" r="1" fill="#A6B8FF" opacity="0.8"/>
    <circle cx="300" cy="1750" r="0.9" fill="#A6B8FF" opacity="0.7"/>
    <circle cx="600" cy="1850" r="1.1" fill="#A6B8FF" opacity="0.8"/>
    <circle cx="900" cy="1750" r="0.7" fill="#A6B8FF" opacity="0.6"/>
    <circle cx="1200" cy="1900" r="1" fill="#A6B8FF" opacity="0.8"/>
    <circle cx="1500" cy="1750" r="1.2" fill="#A6B8FF" opacity="0.9"/>
    <circle cx="1800" cy="1850" r="0.8" fill="#A6B8FF" opacity="0.7"/>

    <!-- Medium stars (blue purple) -->
    <circle cx="200" cy="200" r="1.5" fill="#9390FF" opacity="0.9"/>
    <circle cx="600" cy="350" r="1.7" fill="#9390FF" opacity="0.8"/>
    <circle cx="1000" cy="200" r="1.4" fill="#9390FF" opacity="0.7"/>
    <circle cx="1400" cy="350" r="1.6" fill="#9390FF" opacity="0.9"/>
    <circle cx="1800" cy="200" r="1.5" fill="#9390FF" opacity="0.8"/>
    <circle cx="200" cy="700" r="1.7" fill="#9390FF" opacity="0.9"/>
    <circle cx="600" cy="550" r="1.4" fill="#9390FF" opacity="0.7"/>
    <circle cx="1000" cy="700" r="1.6" fill="#9390FF" opacity="0.8"/>
    <circle cx="1400" cy="550" r="1.5" fill="#9390FF" opacity="0.9"/>
    <circle cx="1800" cy="700" r="1.7" fill="#9390FF" opacity="0.8"/>
    <circle cx="400" cy="1000" r="1.6" fill="#9390FF" opacity="0.9"/>
    <circle cx="800" cy="1150" r="1.5" fill="#9390FF" opacity="0.8"/>
    <circle cx="1200" cy="1000" r="1.7" fill="#9390FF" opacity="0.9"/>
    <circle cx="1600" cy="1150" r="1.4" fill="#9390FF" opacity="0.7"/>
    <circle cx="250" cy="1300" r="1.5" fill="#9390FF" opacity="0.8"/>
    <circle cx="650" cy="1450" r="1.6" fill="#9390FF" opacity="0.9"/>
    <circle cx="1050" cy="1300" r="1.4" fill="#9390FF" opacity="0.7"/>
    <circle cx="1450" cy="1450" r="1.7" fill="#9390FF" opacity="0.8"/>
    <circle cx="1850" cy="1300" r="1.5" fill="#9390FF" opacity="0.9"/>
    <circle cx="350" cy="1700" r="1.6" fill="#9390FF" opacity="0.8"/>
    <circle cx="750" cy="1850" r="1.7" fill="#9390FF" opacity="0.9"/>
    <circle cx="1150" cy="1700" r="1.5" fill="#9390FF" opacity="0.8"/>
    <circle cx="1550" cy="1850" r="1.4" fill="#9390FF" opacity="0.7"/>
    <circle cx="1950" cy="1700" r="1.6" fill="#9390FF" opacity="0.9"/>

    <!-- Large stars with glow effect (brighter purple/blue) -->
    <circle cx="350" cy="300" r="2" fill="#B967FF" opacity="0.9">
      <animate attributeName="opacity" values="0.9;0.4;0.9" dur="3s" repeatCount="indefinite"/>
    </circle>
    <circle cx="850" cy="450" r="2.2" fill="#8267FF" opacity="0.8">
      <animate attributeName="opacity" values="0.8;0.3;0.8" dur="5s" repeatCount="indefinite"/>
    </circle>
    <circle cx="1250" cy="350" r="2.5" fill="#B967FF" opacity="0.9">
      <animate attributeName="opacity" values="0.9;0.4;0.9" dur="4s" repeatCount="indefinite"/>
    </circle>
    <circle cx="1650" cy="400" r="2.3" fill="#677AFF" opacity="0.8">
      <animate attributeName="opacity" values="0.8;0.3;0.8" dur="6s" repeatCount="indefinite"/>
    </circle>
    <circle cx="250" cy="850" r="2.4" fill="#B967FF" opacity="0.9">
      <animate attributeName="opacity" values="0.9;0.4;0.9" dur="5s" repeatCount="indefinite"/>
    </circle>
    <circle cx="750" cy="750" r="2.2" fill="#677AFF" opacity="0.8">
      <animate attributeName="opacity" values="0.8;0.3;0.8" dur="4s" repeatCount="indefinite"/>
    </circle>
    <circle cx="1150" cy="900" r="2" fill="#8267FF" opacity="0.9">
      <animate attributeName="opacity" values="0.9;0.4;0.9" dur="3s" repeatCount="indefinite"/>
    </circle>
    <circle cx="1550" cy="800" r="2.5" fill="#B967FF" opacity="0.8">
      <animate attributeName="opacity" values="0.8;0.3;0.8" dur="6s" repeatCount="indefinite"/>
    </circle>
    <circle cx="400" cy="1200" r="2.3" fill="#8267FF" opacity="0.9">
      <animate attributeName="opacity" values="0.9;0.4;0.9" dur="4s" repeatCount="indefinite"/>
    </circle>
    <circle cx="900" cy="1350" r="2" fill="#677AFF" opacity="0.8">
      <animate attributeName="opacity" values="0.8;0.3;0.8" dur="5s" repeatCount="indefinite"/>
    </circle>
    <circle cx="1300" cy="1250" r="2.4" fill="#B967FF" opacity="0.9">
      <animate attributeName="opacity" values="0.9;0.4;0.9" dur="6s" repeatCount="indefinite"/>
    </circle>
    <circle cx="1700" cy="1350" r="2.2" fill="#8267FF" opacity="0.8">
      <animate attributeName="opacity" values="0.8;0.3;0.8" dur="3s" repeatCount="indefinite"/>
    </circle>
    <circle cx="300" cy="1600" r="2" fill="#677AFF" opacity="0.9">
      <animate attributeName="opacity" values="0.9;0.4;0.9" dur="5s" repeatCount="indefinite"/>
    </circle>
    <circle cx="800" cy="1750" r="2.5" fill="#B967FF" opacity="0.8">
      <animate attributeName="opacity" values="0.8;0.3;0.8" dur="4s" repeatCount="indefinite"/>
    </circle>
    <circle cx="1200" cy="1650" r="2.3" fill="#8267FF" opacity="0.9">
      <animate attributeName="opacity" values="0.9;0.4;0.9" dur="6s" repeatCount="indefinite"/>
    </circle>
    <circle cx="1600" cy="1750" r="2" fill="#677AFF" opacity="0.8">
      <animate attributeName="opacity" values="0.8;0.3;0.8" dur="3s" repeatCount="indefinite"/>
    </circle>
  </g>

  <!-- Distant galaxy/nebula effects -->
  <g opacity="0.2">
    <radialGradient id="nebula1" cx="300" cy="300" r="300" fx="300" fy="300">
      <stop offset="0%" stop-color="#6366F1" stop-opacity="0.3"/>
      <stop offset="100%" stop-color="#6366F1" stop-opacity="0"/>
    </radialGradient>
    <circle cx="300" cy="300" r="300" fill="url(#nebula1)"/>

    <radialGradient id="nebula2" cx="1700" cy="1700" r="250" fx="1700" fy="1700">
      <stop offset="0%" stop-color="#A855F7" stop-opacity="0.3"/>
      <stop offset="100%" stop-color="#A855F7" stop-opacity="0"/>
    </radialGradient>
    <circle cx="1700" cy="1700" r="250" fill="url(#nebula2)"/>

    <radialGradient id="nebula3" cx="1500" cy="400" r="200" fx="1500" fy="400">
      <stop offset="0%" stop-color="#3B82F6" stop-opacity="0.2"/>
      <stop offset="100%" stop-color="#3B82F6" stop-opacity="0"/>
    </radialGradient>
    <circle cx="1500" cy="400" r="200" fill="url(#nebula3)"/>
  </g>
</svg>
